# xmcd CD database file
#
# Track frame offsets:
#	150
#	33672
#	67483
#	87182
#	123199
#	166333
#	182206
#	223074
#	255158
#	282402
#
# Disc length: 4204 seconds
#
# Revision: 0
# Processed by: cddbd v1.5.2PL0 Copyright (c) Steve Scherf et al.
# Submitted via: CDex 1.79
#
DISCID=94106a0a
DTITLE=Milt Jackson and John Coltrane - Bags and Trane
DYEAR=1961
DGENRE=Jazz
TTITLE0=Bags and Trane
TTITLE1=Three Little Words
TTITLE2=The Night We Called It A Day
TTITLE3=Be-Bop
TTITLE4=The Late Late Blues
TTITLE5=Stairway To The Stars
TTITLE6=Blues Legacy
TTITLE7=Centerpiece
TTITLE8=Trane's Slow Blues
TTITLE9=Slowtrane
EXTD=YEAR: 1961
EXTT0=
EXTT1=
EXTT2=
EXTT3=
EXTT4=
EXTT5=
EXTT6=
EXTT7=
EXTT8=
EXTT9=
PLAYORDER=
